<?xml version="1.0" encoding="UTF-8"?>
<svg id="_レイヤー_1" data-name="レイヤー 1" xmlns="http://www.w3.org/2000/svg" viewBox="0 0 290 429.41">
  <defs>
    <style>
      .cls-1 {
        fill: #5dc5ef;
      }

      .cls-2 {
        fill: #006a98;
      }
    </style>
  </defs>
  <path class="cls-1" d="M290,359.24v52.66c0,15.15-17.95,23.12-29.19,12.97l-183.6-165.88-50.92-46L0,189.24v-63.01c0-11.16,13.23-17.04,21.51-9.56l55.69,50.32h.01l50.91,46,161.88,146.25Z"/>
  <path class="cls-2" d="M290,16.36v49.2l-151.23,136.63-47.56-42.97L262.73,4.24c10.5-9.48,27.27-2.04,27.27,12.12Z"/>
  <path class="cls-1" d="M128.12,212.99l-50.91,46-55.7,50.32c-8.28,7.48-21.51,1.6-21.51-9.56v-63.01l26.29-23.75,50.91-46h.01l50.91,46Z"/>
</svg>